<svg width="168" height="21" viewBox="0 0 168 21" fill="none" xmlns="http://www.w3.org/2000/svg">
<path d="M142.771 0.5C141.443 0.5 140.225 0.777364 139.118 1.30441C137.984 1.85918 137.016 2.5806 136.213 3.49601C135.383 4.41142 134.747 5.46499 134.304 6.65778C133.834 7.85058 133.613 9.09909 133.613 10.4307C133.613 11.7344 133.834 12.9548 134.304 14.1476C134.775 15.3682 135.411 16.4222 136.241 17.3653C137.043 18.3085 137.984 19.058 139.118 19.6128C140.225 20.1953 141.443 20.4725 142.771 20.4725C144.154 20.4725 145.427 20.1393 146.617 19.4181V17.0884C145.455 17.8651 144.238 18.2256 142.965 18.2256C141.969 18.2256 141.084 18.0313 140.253 17.6152C139.396 17.2269 138.676 16.6724 138.095 15.9511C137.486 15.2299 136.988 14.4251 136.656 13.482C136.297 12.5388 136.131 11.5678 136.131 10.4859C136.131 9.51507 136.269 8.54423 136.601 7.60109C136.905 6.65795 137.348 5.8538 137.929 5.13258C138.482 4.41136 139.174 3.85642 140.004 3.41258C140.807 2.96874 141.692 2.74695 142.716 2.74695C143.933 2.74695 145.012 3.0242 146.008 3.579C146.977 4.1338 147.751 4.99372 148.36 6.13105L150.269 4.79976C149.605 3.55147 148.665 2.49705 147.447 1.6926C146.23 0.915879 144.652 0.5 142.771 0.5ZM60.8773 0.527628C59.3832 0.527628 58.0827 0.832516 56.9204 1.38731C55.7307 1.96984 54.7627 2.71929 53.9603 3.66243C53.1579 4.60557 52.5488 5.65914 52.1338 6.8242C51.8294 7.65638 51.6637 8.48893 51.5807 9.29338H54.0981C54.1811 8.76632 54.2922 8.23921 54.4583 7.71218C54.7349 6.79677 55.1775 5.96488 55.7586 5.24366C56.312 4.52244 57.0312 3.91163 57.8613 3.46779C58.6913 3.02395 59.6596 2.77452 60.7663 2.77452C61.2644 2.77452 61.7627 2.82998 62.2884 2.94093C62.7864 3.05189 63.2842 3.2464 63.7823 3.49606C64.2526 3.77345 64.7233 4.10606 65.1383 4.52216C65.5534 4.966 65.9125 5.49311 66.2169 6.10337L68.1818 4.82735C67.5731 3.55133 66.6321 2.52526 65.387 1.72081C64.1142 0.944089 62.6204 0.527628 60.8773 0.527628ZM0.000240326 0.638772V15.8952H2.49065V2.80205H8.90943C9.29678 2.80205 9.68407 2.88554 10.0438 3.05198C10.4034 3.24616 10.708 3.46786 10.957 3.74524C11.206 4.05038 11.3998 4.41123 11.5658 4.79961C11.7042 5.21568 11.7869 5.65942 11.7869 6.10326C11.7869 6.57483 11.7036 6.99094 11.5376 7.37928C11.3716 7.76762 11.1779 8.12797 10.9013 8.40536C10.6246 8.71049 10.3208 8.96045 9.96112 9.1269C9.57377 9.29334 9.15849 9.3762 8.74348 9.3762H4.98022V11.4014H9.51818C9.96089 11.4014 10.3479 11.5125 10.7352 11.6789C11.0949 11.8731 11.3993 12.123 11.676 12.4281C11.9527 12.761 12.1464 13.1216 12.3124 13.5377C12.4784 13.9538 12.5617 14.3699 12.5617 14.8137C12.5617 15.2576 12.4784 15.7014 12.3124 16.0898C12.1187 16.5059 11.8976 16.866 11.6209 17.1711C11.3165 17.4762 10.9571 17.7262 10.5974 17.8926C10.21 18.0868 9.76737 18.1702 9.32466 18.1702H0V20.3335H9.32466C10.0994 20.3335 10.8458 20.2227 11.5376 19.9731C12.2293 19.7512 12.8384 19.3902 13.364 18.9464C13.8897 18.5025 14.3049 17.9755 14.6092 17.3375C14.9136 16.7273 15.0796 16.0338 15.0796 15.2571C15.0796 14.0366 14.7472 12.9823 14.0831 12.0947C13.419 11.207 12.5341 10.5694 11.4273 10.2365C12.3127 9.84819 13.0044 9.20994 13.5024 8.37776C14.0005 7.57331 14.2491 6.65793 14.2491 5.65929C14.2491 5.04903 14.1384 4.46667 13.9171 3.85641C13.6958 3.24614 13.3917 2.71914 13.0321 2.24757C12.6447 1.776 12.1743 1.38782 11.6209 1.08271C11.0675 0.805309 10.4309 0.638732 9.76684 0.638732L0.000240326 0.638772ZM18.5898 0.638772V15.6182H21.0802V0.637125L18.5898 0.638772ZM40.7248 0.638772L32.673 20.3336H35.2185L41.7758 3.52347L42.8274 0.638611L40.7248 0.638772ZM84.2736 0.638772L74.1473 11.5403L71.6569 14.2035V20.3338H74.1473V14.3104L77.5503 10.7599L84.689 20.3302H87.4005L79.0724 9.31742L86.9576 0.635057L84.2736 0.638772ZM89.7064 0.638772V20.3336H92.1968V13.2602H94.6872L93.3035 11.0409H92.1968V2.85794H97.9793C98.4497 2.85794 98.8927 2.96884 99.3354 3.19075C99.7781 3.41267 100.138 3.68969 100.47 4.07806C100.802 4.4664 101.051 4.88242 101.245 5.38172C101.438 5.88102 101.549 6.40825 101.549 6.93529C101.549 7.49009 101.466 7.98955 101.3 8.48888C101.106 9.01595 100.885 9.4318 100.608 9.82017C100.304 10.2085 99.944 10.514 99.5289 10.7081C99.1139 10.93 98.6433 11.0409 98.1453 11.0409H95.9599L97.3987 13.2602L101.881 20.3336H104.703L99.9415 12.7904C100.55 12.6517 101.131 12.3743 101.629 11.986C102.127 11.6254 102.57 11.1811 102.929 10.6541C103.289 10.1548 103.566 9.57273 103.76 8.9347C103.953 8.29668 104.064 7.63061 104.064 6.93712C104.064 6.16041 103.898 5.41162 103.621 4.66263C103.317 3.91368 102.902 3.24773 102.376 2.63747C101.85 2.0272 101.214 1.55563 100.495 1.19502C99.7752 0.834413 98.9727 0.640519 98.115 0.640519L89.7064 0.638772ZM107.864 0.638772V20.3336H110.355V0.638451L107.864 0.638772ZM115.051 0.638772V2.85801H121.858C122.965 2.85801 123.933 3.05176 124.818 3.4401C125.676 3.82844 126.396 4.35568 127.004 4.99371C127.613 5.65946 128.056 6.46381 128.36 7.40699C128.665 8.35013 128.831 9.37643 128.831 10.4583C128.831 11.5679 128.665 12.5664 128.36 13.5095C128.056 14.4527 127.613 15.2571 127.032 15.9228C126.451 16.6163 125.732 17.1717 124.846 17.5323C123.961 17.9207 122.965 18.1144 121.858 18.1144H117.542V5.49304H115.051V20.3336H121.858C123.297 20.3336 124.597 20.1119 125.759 19.6404C126.921 19.1688 127.945 18.5027 128.775 17.6428C129.605 16.7829 130.242 15.7568 130.684 14.5362C131.127 13.3157 131.348 11.9562 131.348 10.4584C131.348 9.12691 131.127 7.85076 130.74 6.65787C130.353 5.46508 129.743 4.41137 128.969 3.5237C128.166 2.66378 127.171 1.94269 125.981 1.41563C124.791 0.916323 123.408 0.638842 121.858 0.638842L115.051 0.638772ZM154.663 0.638772V6.74139H157.153V2.85961H167.75V0.640388L154.663 0.638772ZM71.6569 0.66641V10.9857L74.1473 8.29487V0.669472L71.6569 0.66641ZM43.906 3.32961L42.8268 6.26973L45.3166 12.6224H40.392L39.6448 14.564H45.8703L48.1948 20.3337H50.8505L43.906 3.32961ZM154.661 9.23814V15.6184H157.152V11.3188H166.366V9.2384L154.661 9.23814ZM144.511 10.5142V12.3999H148.745V20.3336H150.847V10.514L144.511 10.5142ZM51.5795 11.6238C51.6902 12.4559 51.8834 13.2602 52.1877 14.0646C52.6304 15.2852 53.2668 16.3668 54.0969 17.3099C54.9269 18.2531 55.8957 19.0302 57.0301 19.6127C58.1369 20.2229 59.3818 20.5 60.7376 20.5C61.4847 20.5 62.2597 20.4167 63.0621 20.1948C63.8368 20.0006 64.5838 19.7236 65.3032 19.3075C66.0226 18.9469 66.659 18.4475 67.2123 17.8927C67.7657 17.3379 68.2082 16.6717 68.5402 15.9227L66.4651 14.7855C66.1884 15.3958 65.8286 15.9229 65.3859 16.3667C64.9432 16.8106 64.4733 17.1713 64.0029 17.4487C63.4772 17.7261 62.9791 17.9481 62.4257 18.0591C61.8724 18.1978 61.3466 18.2531 60.8486 18.2531C59.8525 18.2531 58.9671 18.059 58.137 17.6151C57.307 17.199 56.5873 16.6164 55.9786 15.8952C55.3422 15.1739 54.8719 14.3698 54.5398 13.4266C54.3185 12.8441 54.18 12.2618 54.097 11.6238H51.5795ZM18.5898 18.1142V20.3334H32.0371V18.1142H18.5898ZM154.663 18.1142V20.3334H168V18.1142H154.663Z" fill="white" fill-opacity="0.92"/>
</svg>
